# xmcd
#
# Track frame offsets:
# 150
# 16454
# 31667
# 47519
# 62985
# 78279
# 94962
# 111470
# 126700
# 143807
# 161879
# 177596
# 195763
# 212265
# 230106
# 248163
# 261794
# 283318
# 306550
# 322561
#
# Disc length: 4528 seconds
#
#
# Revision: 0
# Processed by: cddbd v1.5PL3 Copyright (c) Steve Scherf et al.
# Submitted via: FreeRIP 2.60 
#
DISCID=2411ae14
DTITLE=Sound Sensations  - 20 Country Favorites 
DYEAR=1900
DGENRE=Country
TTITLE0=Living and Living Well
TTITLE1=Ka-Ching
TTITLE2=No Shirt ,No Shoes , No Problems
TTITLE3=Does My Ring Burn Your Finger
TTITLE4=Beer For My Horses
TTITLE5=Inside Out
TTITLE6=Celeberity
TTITLE7=I Just Want To Be Mad
TTITLE8=Cowboy In Me
TTITLE9=When The Lights Go Down
TTITLE10=My Frount Proch Looking In
TTITLE11=I Breath In , I Breath Out
TTITLE12=Long Time Gone
TTITLE13=Red Dirt Road
TTITLE14=This One For The Girls
TTITLE15=Ten Rounds With Jose Cuervo
TTITLE16=Forever And For Always
TTITLE17=Traveling Soldier
TTITLE18=Unsually Unusual
TTITLE19=It's Five O'clock Some Where
EXTD=
EXTT0=
EXTT1=
EXTT2=
EXTT3=
EXTT4=
EXTT5=
EXTT6=
EXTT7=
EXTT8=
EXTT9=
EXTT10=
EXTT11=
EXTT12=
EXTT13=
EXTT14=
EXTT15=
EXTT16=
EXTT17=
EXTT18=
EXTT19=
PLAYORDER=
